<?xml version="1.0" encoding="UTF-8" standalone="no"?>
<!-- Created with Inkscape (http://www.inkscape.org/) -->
<svg
   xmlns:dc="http://purl.org/dc/elements/1.1/"
   xmlns:cc="http://web.resource.org/cc/"
   xmlns:rdf="http://www.w3.org/1999/02/22-rdf-syntax-ns#"
   xmlns:svg="http://www.w3.org/2000/svg"
   xmlns="http://www.w3.org/2000/svg"
   xmlns:xlink="http://www.w3.org/1999/xlink"
   xmlns:sodipodi="http://sodipodi.sourceforge.net/DTD/sodipodi-0.dtd"
   xmlns:inkscape="http://www.inkscape.org/namespaces/inkscape"
   width="48"
   height="48"
   id="svg2"
   sodipodi:version="0.32"
   inkscape:version="0.45"
   version="1.0"
   sodipodi:docbase="/home/cesarbs"
   sodipodi:docname="quicksynergy.svg"
   inkscape:output_extension="org.inkscape.output.svg.inkscape"
   inkscape:export-filename="/home/cesarbs/quicksynergy.png"
   inkscape:export-xdpi="180"
   inkscape:export-ydpi="180"
   sodipodi:modified="TRUE">
  <defs
     id="defs4">
    <linearGradient
       id="linearGradient10095">
      <stop
         style="stop-color:#5d5d5d;stop-opacity:1;"
         offset="0"
         id="stop10097" />
      <stop
         style="stop-color:#c6c6c6;stop-opacity:1;"
         offset="1"
         id="stop10099" />
    </linearGradient>
    <linearGradient
       id="linearGradient10087">
      <stop
         style="stop-color:#e2e2e2;stop-opacity:1;"
         offset="0"
         id="stop10089" />
      <stop
         style="stop-color:#a7a7a7;stop-opacity:1;"
         offset="1"
         id="stop10091" />
    </linearGradient>
    <linearGradient
       id="linearGradient8106">
      <stop
         style="stop-color:#ffffff;stop-opacity:1;"
         offset="0"
         id="stop8108" />
      <stop
         style="stop-color:#aaaaaa;stop-opacity:1;"
         offset="1"
         id="stop8110" />
    </linearGradient>
    <linearGradient
       id="linearGradient6141">
      <stop
         style="stop-color:#ffffff;stop-opacity:1;"
         offset="0"
         id="stop6143" />
      <stop
         style="stop-color:#bfbfbf;stop-opacity:1;"
         offset="1"
         id="stop6145" />
    </linearGradient>
    <linearGradient
       inkscape:collect="always"
       xlink:href="#linearGradient6141"
       id="linearGradient6147"
       x1="16.408949"
       y1="26.765074"
       x2="34.730961"
       y2="41.974705"
       gradientUnits="userSpaceOnUse" />
    <linearGradient
       inkscape:collect="always"
       xlink:href="#linearGradient6141"
       id="linearGradient7135"
       x1="13.389598"
       y1="37.7519"
       x2="24.86993"
       y2="42.171318"
       gradientUnits="userSpaceOnUse" />
    <linearGradient
       inkscape:collect="always"
       xlink:href="#linearGradient8106"
       id="linearGradient8112"
       x1="6.6465745"
       y1="30.838198"
       x2="34.971455"
       y2="44.330902"
       gradientUnits="userSpaceOnUse" />
    <linearGradient
       inkscape:collect="always"
       xlink:href="#linearGradient10087"
       id="linearGradient10093"
       x1="4.6656103"
       y1="1.7531633"
       x2="17.546963"
       y2="20.253164"
       gradientUnits="userSpaceOnUse"
       gradientTransform="translate(-2.1856602,0.3875631)" />
    <linearGradient
       inkscape:collect="always"
       xlink:href="#linearGradient10095"
       id="linearGradient10101"
       x1="17.668787"
       y1="20.345972"
       x2="17.700035"
       y2="23.439722"
       gradientUnits="userSpaceOnUse"
       gradientTransform="translate(-2.1856602,0.3875631)" />
    <linearGradient
       inkscape:collect="always"
       xlink:href="#linearGradient10095"
       id="linearGradient10144"
       gradientUnits="userSpaceOnUse"
       x1="17.668787"
       y1="20.345972"
       x2="17.700035"
       y2="23.439722"
       gradientTransform="translate(16.668785,6.3433508)" />
    <linearGradient
       inkscape:collect="always"
       xlink:href="#linearGradient10087"
       id="linearGradient10146"
       gradientUnits="userSpaceOnUse"
       x1="4.6656103"
       y1="1.7531633"
       x2="17.546963"
       y2="20.253164"
       gradientTransform="translate(16.668785,6.3433508)" />
    <linearGradient
       inkscape:collect="always"
       xlink:href="#linearGradient6141"
       id="linearGradient10150"
       gradientUnits="userSpaceOnUse"
       x1="13.389598"
       y1="37.7519"
       x2="24.86993"
       y2="42.171318"
       gradientTransform="translate(0.5,1.3713203)" />
    <linearGradient
       inkscape:collect="always"
       xlink:href="#linearGradient6141"
       id="linearGradient10152"
       gradientUnits="userSpaceOnUse"
       x1="16.408949"
       y1="26.765074"
       x2="34.730961"
       y2="41.974705"
       gradientTransform="translate(0.5,1.3713203)" />
    <linearGradient
       inkscape:collect="always"
       xlink:href="#linearGradient8106"
       id="linearGradient10154"
       gradientUnits="userSpaceOnUse"
       x1="6.6465745"
       y1="30.838198"
       x2="34.971455"
       y2="44.330902"
       gradientTransform="translate(0.5,1.3713203)" />
  </defs>
  <sodipodi:namedview
     id="base"
     pagecolor="#ffffff"
     bordercolor="#666666"
     borderopacity="1.0"
     gridtolerance="10000"
     guidetolerance="10"
     objecttolerance="10"
     inkscape:pageopacity="0.0"
     inkscape:pageshadow="2"
     inkscape:zoom="8"
     inkscape:cx="52.08909"
     inkscape:cy="23.455622"
     inkscape:document-units="px"
     inkscape:current-layer="layer1"
     showgrid="false"
     width="48px"
     height="48px"
     inkscape:window-width="1024"
     inkscape:window-height="693"
     inkscape:window-x="0"
     inkscape:window-y="25" />
  <metadata
     id="metadata7">
    <rdf:RDF>
      <cc:Work
         rdf:about="">
        <dc:format>image/svg+xml</dc:format>
        <dc:type
           rdf:resource="http://purl.org/dc/dcmitype/StillImage" />
      </cc:Work>
    </rdf:RDF>
  </metadata>
  <g
     inkscape:label="Layer 1"
     inkscape:groupmode="layer"
     id="layer1">
    <path
       style="fill:none;fill-rule:evenodd;stroke:#3e3e3e;stroke-width:1px;stroke-linecap:butt;stroke-linejoin:miter;stroke-opacity:1"
       d="M 23.25,33.517767 C 23.75,29.892767 19.582904,29.211122 21.625,27.125 C 26.259669,22.390411 24.75,20.75 24.75,20.75"
       id="path10148"
       sodipodi:nodetypes="csc" />
    <path
       style="fill:url(#linearGradient10101);fill-opacity:1;stroke:#545454;stroke-width:1;stroke-miterlimit:4;stroke-dasharray:none;stroke-opacity:1"
       d="M 14.608126,20.358535 C 10.460945,20.358535 7.108126,21.744622 7.108126,23.452285 C 7.108126,23.485989 7.105524,23.51259 7.108126,23.546035 C 7.108993,23.557183 7.106973,23.566166 7.108126,23.577285 C 7.105772,23.587158 7.076876,23.598589 7.076876,23.608535 C 7.076876,24.138972 10.453267,24.546035 14.608126,24.546035 C 18.762985,24.546035 22.139376,24.138973 22.139376,23.608535 C 22.139376,23.583183 22.123249,23.539644 22.108126,23.514785 C 22.109426,23.491122 22.139376,23.476076 22.139376,23.452285 C 22.139376,21.744622 18.755308,20.358535 14.608126,20.358535 z "
       id="path4192" />
    <path
       style="fill:url(#linearGradient10154);fill-opacity:1;stroke:#545454;stroke-width:1;stroke-miterlimit:4;stroke-dasharray:none;stroke-opacity:1"
       d="M 7.9291549,32.73956 L 39.992174,32.73956 L 42.138748,46.037977 L 6.1613879,46.037977 L 7.9291549,32.73956 z "
       id="rect2160"
       sodipodi:nodetypes="ccccc" />
    <path
       style="fill:url(#linearGradient10152);fill-opacity:1;stroke:#989898;stroke-width:1;stroke-miterlimit:4;stroke-dasharray:none;stroke-opacity:1"
       d="M 9.706536,34.69731 L 8.4438453,44.16606 L 12.237786,44.16606 L 12.869131,39.50981 L 27.762691,39.50981 L 28.394036,44.16606 L 40.034265,44.16606 L 38.519036,34.69731 L 9.706536,34.69731 z "
       id="rect3167"
       sodipodi:nodetypes="ccccccccc" />
    <path
       style="fill:url(#linearGradient10150);fill-opacity:1;stroke:#989898;stroke-width:1;stroke-miterlimit:4;stroke-dasharray:none;stroke-opacity:1"
       d="M 14.137059,40.638448 L 26.385159,40.638448 L 26.763966,43.795175 L 13.758252,43.921444 L 14.137059,40.638448 z "
       id="rect3179"
       sodipodi:nodetypes="ccccc" />
    <path
       sodipodi:nodetypes="ccccccccc"
       id="rect3182"
       d="M 3.2337573,1.9205459 L 26.361302,1.9205459 C 26.915302,1.9205459 27.361302,2.3665459 27.361302,2.9205459 L 27.361302,19.860907 C 27.361302,20.414907 26.915302,20.860907 26.361302,20.860907 L 2.8549501,20.860907 C 2.3009501,20.860907 1.8549501,20.414907 1.8549501,19.860907 L 1.8549501,2.9205459 C 1.8549501,2.3665459 2.6797573,1.9205459 3.2337573,1.9205459 z "
       style="fill:url(#linearGradient10093);fill-opacity:1;stroke:#545454;stroke-width:1;stroke-miterlimit:4;stroke-dasharray:none;stroke-opacity:1" />
    <rect
       style="fill:#729fcf;fill-opacity:1;stroke:#b2c6dc;stroke-width:0.93413782;stroke-miterlimit:4;stroke-dasharray:none;stroke-opacity:1"
       id="rect3184"
       width="20.340694"
       height="13.735343"
       x="4.437778"
       y="4.5230556"
       rx="1.0005594"
       ry="0.99796671" />
    <path
       style="fill:#9cc3eb;fill-opacity:1;stroke:#000000;stroke-width:0;stroke-miterlimit:4;stroke-dasharray:none;stroke-opacity:1"
       d="M 5.3718049,4.9947659 C 4.817495,4.9947659 4.904736,5.4344138 4.904736,5.9872873 L 4.904736,16.905023 C 11.320673,10.970011 16.708334,12.895637 21.13538,8.4685909 C 22.402447,7.2015245 23.265882,6.0213673 23.87941,4.9947659 L 5.3718049,4.9947659 z "
       id="rect10066"
       sodipodi:nodetypes="cccscc" />
    <rect
       style="opacity:1;fill:none;fill-opacity:1;stroke:#dddddd;stroke-width:1.00719023;stroke-miterlimit:4;stroke-dasharray:none;stroke-opacity:1"
       id="rect10117"
       width="23.555309"
       height="16.930309"
       x="2.8648102"
       y="2.9224083"
       ry="0.20070489"
       rx="0.20050614" />
    <path
       style="fill:url(#linearGradient10144);fill-opacity:1;stroke:#545454;stroke-width:1;stroke-miterlimit:4;stroke-dasharray:none;stroke-opacity:1"
       d="M 33.462571,26.314324 C 29.31539,26.314324 25.962571,27.700411 25.962571,29.408074 C 25.962571,29.441778 25.959969,29.468379 25.962571,29.501824 C 25.963438,29.512972 25.961418,29.521955 25.962571,29.533074 C 25.960217,29.542947 25.931321,29.554378 25.931321,29.564324 C 25.931321,30.094761 29.307712,30.501824 33.462571,30.501824 C 37.61743,30.501824 40.993821,30.094762 40.993821,29.564324 C 40.993821,29.538972 40.977694,29.495433 40.962571,29.470574 C 40.963871,29.446911 40.993821,29.431865 40.993821,29.408074 C 40.993821,27.700411 37.609753,26.314324 33.462571,26.314324 z "
       id="path10134" />
    <path
       sodipodi:nodetypes="ccccccccc"
       id="path10136"
       d="M 22.088203,7.8763336 L 45.215747,7.8763336 C 45.769747,7.8763336 46.215747,8.3223336 46.215747,8.8763336 L 46.215747,25.816696 C 46.215747,26.370696 45.769747,26.816696 45.215747,26.816696 L 21.709396,26.816696 C 21.155396,26.816696 20.709396,26.370696 20.709396,25.816696 L 20.709396,8.8763336 C 20.709396,8.3223336 21.534203,7.8763336 22.088203,7.8763336 z "
       style="fill:url(#linearGradient10146);fill-opacity:1;stroke:#545454;stroke-width:1;stroke-miterlimit:4;stroke-dasharray:none;stroke-opacity:1" />
    <rect
       style="fill:#4e9a06;fill-opacity:1;stroke:#97c070;stroke-width:0.93413782;stroke-miterlimit:4;stroke-dasharray:none;stroke-opacity:1"
       id="rect10138"
       width="20.340694"
       height="13.735343"
       x="23.292225"
       y="10.478844"
       rx="1.0005594"
       ry="0.99796671" />
    <path
       style="fill:#c2e6a0;fill-opacity:1;stroke:#4e9a06;stroke-width:0;stroke-miterlimit:4;stroke-dasharray:none;stroke-opacity:1"
       d="M 24.22625,10.950554 C 23.67194,10.950554 23.759181,11.390202 23.759181,11.943076 L 23.759181,22.860812 C 30.175118,16.925799 35.562779,18.851425 39.989825,14.424379 C 41.256892,13.157313 42.120327,11.977156 42.733855,10.950554 L 24.22625,10.950554 z "
       id="path10140"
       sodipodi:nodetypes="cccscc" />
    <rect
       style="opacity:1;fill:none;fill-opacity:1;stroke:#dddddd;stroke-width:1.00719023;stroke-miterlimit:4;stroke-dasharray:none;stroke-opacity:1"
       id="rect10142"
       width="23.555309"
       height="16.930309"
       x="21.719257"
       y="8.8781967"
       ry="0.20070489"
       rx="0.20050614" />
  </g>
</svg>
